<mxfile host="Electron" modified="2023-05-08T19:55:28.428Z" agent="Mozilla/5.0 (Windows NT 10.0; Win64; x64) AppleWebKit/537.36 (KHTML, like Gecko) draw.io/21.2.8 Chrome/112.0.5615.165 Electron/24.2.0 Safari/537.36" etag="3EmVadXS0oZyOspe2_10" version="21.2.8" type="device">
  <diagram name="Page-1" id="jjewUvLtEGfqKPQVXPn4">
    <mxGraphModel dx="1036" dy="614" grid="1" gridSize="10" guides="1" tooltips="1" connect="1" arrows="1" fold="1" page="1" pageScale="1" pageWidth="827" pageHeight="1169" math="0" shadow="0">
      <root>
        <mxCell id="0" />
        <mxCell id="1" parent="0" />
        <mxCell id="-QbtbOqiUeDcJXs4TOYm-31" value="" style="rounded=0;whiteSpace=wrap;html=1;" parent="1" vertex="1">
          <mxGeometry x="80" y="520" width="720" height="140" as="geometry" />
        </mxCell>
        <mxCell id="-QbtbOqiUeDcJXs4TOYm-1" value="" style="rounded=0;whiteSpace=wrap;html=1;" parent="1" vertex="1">
          <mxGeometry x="80" y="80" width="720" height="160" as="geometry" />
        </mxCell>
        <mxCell id="-QbtbOqiUeDcJXs4TOYm-3" value="" style="rounded=0;whiteSpace=wrap;html=1;" parent="1" vertex="1">
          <mxGeometry x="80" y="240" width="720" height="280" as="geometry" />
        </mxCell>
        <mxCell id="-QbtbOqiUeDcJXs4TOYm-7" value="Presentation Tier&amp;nbsp; &amp;nbsp; &amp;nbsp; &amp;nbsp; &amp;nbsp; &amp;nbsp; &amp;nbsp;&amp;nbsp;" style="text;html=1;align=center;verticalAlign=middle;resizable=0;points=[];autosize=1;rotation=-90;strokeWidth=1;perimeterSpacing=4;fillColor=#dae8fc;strokeColor=#6c8ebf;" parent="1" vertex="1">
          <mxGeometry x="15" y="145" width="160" height="30" as="geometry" />
        </mxCell>
        <mxCell id="-QbtbOqiUeDcJXs4TOYm-8" value="Logic Tier&amp;nbsp; &amp;nbsp; &amp;nbsp; &amp;nbsp; &amp;nbsp; &amp;nbsp; &amp;nbsp; &amp;nbsp; &amp;nbsp; &amp;nbsp; &amp;nbsp; &amp;nbsp; &amp;nbsp; &amp;nbsp; &amp;nbsp; &amp;nbsp; &amp;nbsp; &amp;nbsp; &amp;nbsp; &amp;nbsp; &amp;nbsp; &amp;nbsp; &amp;nbsp; &amp;nbsp; &amp;nbsp; &amp;nbsp; &amp;nbsp; &amp;nbsp; &amp;nbsp; &amp;nbsp;&amp;nbsp;" style="text;html=1;align=center;verticalAlign=middle;resizable=0;points=[];autosize=1;strokeColor=#82b366;fillColor=#d5e8d4;rotation=-90;" parent="1" vertex="1">
          <mxGeometry x="-45" y="365" width="280" height="30" as="geometry" />
        </mxCell>
        <mxCell id="-QbtbOqiUeDcJXs4TOYm-12" value="Salary information UI" style="rounded=1;whiteSpace=wrap;html=1;strokeWidth=1;" parent="1" vertex="1">
          <mxGeometry x="120" y="100" width="90" height="40" as="geometry" />
        </mxCell>
        <mxCell id="-QbtbOqiUeDcJXs4TOYm-18" style="edgeStyle=orthogonalEdgeStyle;rounded=0;orthogonalLoop=1;jettySize=auto;html=1;exitX=0.5;exitY=1;exitDx=0;exitDy=0;entryX=0;entryY=0.5;entryDx=0;entryDy=0;fillColor=#0050ef;strokeColor=#001DBC;" parent="1" source="-QbtbOqiUeDcJXs4TOYm-13" target="-QbtbOqiUeDcJXs4TOYm-17" edge="1">
          <mxGeometry relative="1" as="geometry" />
        </mxCell>
        <mxCell id="-QbtbOqiUeDcJXs4TOYm-13" value="Recommend Salary Data" style="rounded=1;whiteSpace=wrap;html=1;strokeWidth=1;" parent="1" vertex="1">
          <mxGeometry x="320" y="100" width="90" height="40" as="geometry" />
        </mxCell>
        <mxCell id="-QbtbOqiUeDcJXs4TOYm-26" style="edgeStyle=orthogonalEdgeStyle;rounded=0;orthogonalLoop=1;jettySize=auto;html=1;exitX=1;exitY=0.5;exitDx=0;exitDy=0;entryX=0;entryY=0.5;entryDx=0;entryDy=0;fillColor=#0050ef;strokeColor=#001DBC;" parent="1" source="-QbtbOqiUeDcJXs4TOYm-15" target="-QbtbOqiUeDcJXs4TOYm-25" edge="1">
          <mxGeometry relative="1" as="geometry" />
        </mxCell>
        <mxCell id="-QbtbOqiUeDcJXs4TOYm-15" value="Input Salary information" style="rounded=1;whiteSpace=wrap;html=1;strokeWidth=1;" parent="1" vertex="1">
          <mxGeometry x="190" y="175" width="90" height="40" as="geometry" />
        </mxCell>
        <mxCell id="-QbtbOqiUeDcJXs4TOYm-16" value="" style="endArrow=classic;html=1;rounded=0;exitX=0.5;exitY=1;exitDx=0;exitDy=0;entryX=0;entryY=0.5;entryDx=0;entryDy=0;fillColor=#0050ef;strokeColor=#001DBC;" parent="1" source="-QbtbOqiUeDcJXs4TOYm-12" target="-QbtbOqiUeDcJXs4TOYm-15" edge="1">
          <mxGeometry width="50" height="50" relative="1" as="geometry">
            <mxPoint x="390" y="330" as="sourcePoint" />
            <mxPoint x="440" y="280" as="targetPoint" />
            <Array as="points">
              <mxPoint x="165" y="195" />
            </Array>
          </mxGeometry>
        </mxCell>
        <mxCell id="-QbtbOqiUeDcJXs4TOYm-22" style="edgeStyle=orthogonalEdgeStyle;rounded=0;orthogonalLoop=1;jettySize=auto;html=1;exitX=1;exitY=0.5;exitDx=0;exitDy=0;fillColor=#0050ef;strokeColor=#001DBC;" parent="1" source="-QbtbOqiUeDcJXs4TOYm-17" target="-QbtbOqiUeDcJXs4TOYm-20" edge="1">
          <mxGeometry relative="1" as="geometry" />
        </mxCell>
        <mxCell id="-QbtbOqiUeDcJXs4TOYm-17" value="User input data for recommendation" style="rounded=1;whiteSpace=wrap;html=1;strokeWidth=1;" parent="1" vertex="1">
          <mxGeometry x="395" y="170" width="105" height="40" as="geometry" />
        </mxCell>
        <mxCell id="-QbtbOqiUeDcJXs4TOYm-19" value="Display result UI" style="rounded=1;whiteSpace=wrap;html=1;strokeWidth=1;" parent="1" vertex="1">
          <mxGeometry x="630" y="130" width="105" height="40" as="geometry" />
        </mxCell>
        <mxCell id="-QbtbOqiUeDcJXs4TOYm-23" style="edgeStyle=orthogonalEdgeStyle;rounded=0;orthogonalLoop=1;jettySize=auto;html=1;exitX=1;exitY=0.5;exitDx=0;exitDy=0;entryX=0;entryY=0.25;entryDx=0;entryDy=0;fillColor=#0050ef;strokeColor=#001DBC;" parent="1" source="-QbtbOqiUeDcJXs4TOYm-20" target="-QbtbOqiUeDcJXs4TOYm-19" edge="1">
          <mxGeometry relative="1" as="geometry" />
        </mxCell>
        <mxCell id="-QbtbOqiUeDcJXs4TOYm-20" value="User recommendation API" style="rounded=1;whiteSpace=wrap;html=1;strokeWidth=1;" parent="1" vertex="1">
          <mxGeometry x="480" y="280" width="110" height="50" as="geometry" />
        </mxCell>
        <mxCell id="-QbtbOqiUeDcJXs4TOYm-24" value="Recommedation Engine" style="rounded=1;whiteSpace=wrap;html=1;strokeWidth=1;" parent="1" vertex="1">
          <mxGeometry x="485" y="422" width="105" height="40" as="geometry" />
        </mxCell>
        <mxCell id="-QbtbOqiUeDcJXs4TOYm-36" style="edgeStyle=orthogonalEdgeStyle;rounded=0;orthogonalLoop=1;jettySize=auto;html=1;exitX=0.5;exitY=1;exitDx=0;exitDy=0;fillColor=#0050ef;strokeColor=#001DBC;" parent="1" source="-QbtbOqiUeDcJXs4TOYm-25" target="-QbtbOqiUeDcJXs4TOYm-32" edge="1">
          <mxGeometry relative="1" as="geometry" />
        </mxCell>
        <mxCell id="-QbtbOqiUeDcJXs4TOYm-25" value="Salary details save API" style="rounded=1;whiteSpace=wrap;html=1;strokeWidth=1;" parent="1" vertex="1">
          <mxGeometry x="330" y="280" width="110" height="50" as="geometry" />
        </mxCell>
        <mxCell id="-QbtbOqiUeDcJXs4TOYm-28" value="" style="endArrow=classic;startArrow=classic;html=1;rounded=0;fillColor=#0050ef;strokeColor=#001DBC;" parent="1" edge="1">
          <mxGeometry width="50" height="50" relative="1" as="geometry">
            <mxPoint x="540.9464285714287" y="422" as="sourcePoint" />
            <mxPoint x="540" y="330" as="targetPoint" />
          </mxGeometry>
        </mxCell>
        <mxCell id="-QbtbOqiUeDcJXs4TOYm-32" value="&amp;nbsp;Information&lt;br&gt;Database" style="shape=cylinder3;whiteSpace=wrap;html=1;boundedLbl=1;backgroundOutline=1;size=15;strokeWidth=1;" parent="1" vertex="1">
          <mxGeometry x="395" y="560" width="70" height="95" as="geometry" />
        </mxCell>
        <mxCell id="-QbtbOqiUeDcJXs4TOYm-40" value="Data Tier&amp;nbsp; &amp;nbsp; &amp;nbsp; &amp;nbsp; &amp;nbsp; &amp;nbsp; &amp;nbsp; &amp;nbsp; &amp;nbsp; &amp;nbsp;&amp;nbsp;" style="text;html=1;align=center;verticalAlign=middle;resizable=0;points=[];autosize=1;rotation=-90;strokeWidth=1;perimeterSpacing=4;fillColor=#f8cecc;strokeColor=#b85450;" parent="1" vertex="1">
          <mxGeometry x="25" y="575" width="140" height="30" as="geometry" />
        </mxCell>
        <mxCell id="V70_8jW7DyOgHduI29x1-1" value="Recommendation Model" style="rounded=1;whiteSpace=wrap;html=1;strokeWidth=1;" vertex="1" parent="1">
          <mxGeometry x="660" y="422" width="105" height="40" as="geometry" />
        </mxCell>
        <mxCell id="V70_8jW7DyOgHduI29x1-2" style="edgeStyle=orthogonalEdgeStyle;rounded=0;orthogonalLoop=1;jettySize=auto;html=1;entryX=1;entryY=0.5;entryDx=0;entryDy=0;fillColor=#0050ef;strokeColor=#001DBC;exitX=0;exitY=0.5;exitDx=0;exitDy=0;" edge="1" parent="1" source="V70_8jW7DyOgHduI29x1-1" target="-QbtbOqiUeDcJXs4TOYm-24">
          <mxGeometry relative="1" as="geometry">
            <mxPoint x="610" y="442" as="sourcePoint" />
            <mxPoint x="405" y="200" as="targetPoint" />
          </mxGeometry>
        </mxCell>
        <mxCell id="V70_8jW7DyOgHduI29x1-4" value="" style="endArrow=classic;startArrow=classic;html=1;rounded=0;fillColor=#0050ef;strokeColor=#001DBC;entryX=0.75;entryY=1;entryDx=0;entryDy=0;" edge="1" parent="1" target="-QbtbOqiUeDcJXs4TOYm-24">
          <mxGeometry width="50" height="50" relative="1" as="geometry">
            <mxPoint x="470.94642857142867" y="612" as="sourcePoint" />
            <mxPoint x="470" y="520" as="targetPoint" />
            <Array as="points">
              <mxPoint x="564" y="610" />
            </Array>
          </mxGeometry>
        </mxCell>
      </root>
    </mxGraphModel>
  </diagram>
</mxfile>
